<svg width="10" height="17" viewBox="0 0 10 17" fill="none" xmlns="http://www.w3.org/2000/svg">
<path d="M9.57589 1.00446C9.6875 1.11606 9.7433 1.24441 9.7433 1.3895C9.7433 1.53459 9.6875 1.66294 9.57589 1.77454L2.99665 8.35379L9.57589 14.933C9.6875 15.0446 9.7433 15.173 9.7433 15.3181C9.7433 15.4632 9.6875 15.5915 9.57589 15.7031L8.73884 16.5402C8.62723 16.6518 8.49888 16.7076 8.3538 16.7076C8.20871 16.7076 8.08036 16.6518 7.96875 16.5402L0.167411 8.73883C0.055804 8.62722 3.72529e-07 8.49887 3.72529e-07 8.35379C3.72529e-07 8.2087 0.055804 8.08035 0.167411 7.96874L7.96875 0.167401C8.08036 0.0557934 8.20871 -1.0252e-05 8.3538 -1.0252e-05C8.49888 -1.0252e-05 8.62723 0.0557934 8.73884 0.167401L9.57589 1.00446Z" fill="white"/>
</svg>
