<svg width="24" height="15" viewBox="0 0 24 15" fill="none" xmlns="http://www.w3.org/2000/svg">
<path d="M14.4342 7.53345C14.4342 8.9263 14.1429 10.1685 13.5603 11.26C12.9777 12.3448 12.1473 13.1919 11.0692 13.8013C9.99107 14.4174 8.75558 14.7254 7.36272 14.7254C6.36496 14.7254 5.41071 14.5312 4.5 14.1428C3.58929 13.7544 2.8058 13.2321 2.14955 12.5759C1.4933 11.9196 0.970982 11.1361 0.582589 10.2254C0.194196 9.3147 0 8.36046 0 7.36269C0 6.36492 0.194196 5.41068 0.582589 4.49996C0.970982 3.58925 1.4933 2.80577 2.14955 2.14952C2.8058 1.49327 3.58929 0.970947 4.5 0.582554C5.41071 0.194161 6.36496 -3.56436e-05 7.36272 -3.56436e-05C9.2779 -3.56436e-05 10.9219 0.642822 12.2946 1.92854L10.2958 3.84706C9.51228 3.09037 8.5346 2.71202 7.36272 2.71202C6.53906 2.71202 5.77567 2.91961 5.07254 3.33479C4.37612 3.74996 3.82366 4.31581 3.41518 5.03233C3.0067 5.74215 2.80246 6.51894 2.80246 7.36269C2.80246 8.20644 3.0067 8.98657 3.41518 9.70309C3.82366 10.4129 4.37612 10.9754 5.07254 11.3906C5.77567 11.8058 6.53906 12.0134 7.36272 12.0134C7.91853 12.0134 8.42746 11.9363 8.88951 11.7823C9.35826 11.6283 9.7433 11.4375 10.0446 11.2098C10.346 10.9754 10.6071 10.7109 10.8281 10.4163C11.0558 10.1216 11.2199 9.84371 11.3203 9.58255C11.4275 9.32139 11.5011 9.07363 11.5413 8.83925H7.36272V6.308H14.3136C14.394 6.72988 14.4342 7.13836 14.4342 7.53345ZM23.1429 6.308V8.41738H21.0435V10.5167H18.9342V8.41738H16.8348V6.308H18.9342V4.20867H21.0435V6.308H23.1429Z" fill="white"/>
</svg>
