<svg width="24" height="24" viewBox="0 0 24 24" fill="none" xmlns="http://www.w3.org/2000/svg">
<path d="M9.50002 19C4.26201 19 0 14.738 0 9.50002C0 4.26201 4.26201 0 9.50002 0C14.738 0 19 4.26201 19 9.50002C19 14.738 14.738 19 9.50002 19ZM9.50002 1.5C5.08901 1.5 1.5 5.08901 1.5 9.50002C1.5 13.911 5.08901 17.5 9.50002 17.5C13.911 17.5 17.5 13.911 17.5 9.50002C17.5 5.08901 13.911 1.5 9.50002 1.5Z" fill="white"/>
<path d="M23.2499 24C23.1514 24.0002 23.0539 23.9809 22.9629 23.9432C22.8719 23.9054 22.7893 23.8499 22.7199 23.78L15.1599 16.22C15.0903 16.1503 15.035 16.0676 14.9973 15.9766C14.9596 15.8856 14.9402 15.788 14.9402 15.6895C14.9402 15.591 14.9596 15.4934 14.9973 15.4024C15.035 15.3114 15.0903 15.2286 15.1599 15.159C15.2296 15.0893 15.3123 15.0341 15.4033 14.9963C15.4943 14.9586 15.5919 14.9392 15.6904 14.9392C15.789 14.9392 15.8865 14.9586 15.9775 14.9963C16.0686 15.0341 16.1513 15.0893 16.2209 15.159L23.7809 22.719C23.8861 22.8239 23.9578 22.9576 23.9868 23.1033C24.0159 23.249 24.001 23.4 23.9441 23.5372C23.8872 23.6744 23.7909 23.7916 23.6673 23.874C23.5437 23.9564 23.3985 24.0003 23.2499 24Z" fill="white"/>
</svg>
