<svg width="16" height="13" viewBox="0 0 16 13" fill="none" xmlns="http://www.w3.org/2000/svg">
<path d="M15.8303 1.52682C15.3816 2.18307 14.8392 2.74222 14.2031 3.20428C14.2098 3.29803 14.2131 3.43865 14.2131 3.62615C14.2131 4.49669 14.0859 5.36722 13.8314 6.23776C13.577 7.1016 13.1886 7.93195 12.6662 8.72883C12.1506 9.5257 11.5345 10.2322 10.818 10.8482C10.1015 11.4576 9.23767 11.9465 8.22651 12.3148C7.21535 12.6764 6.13388 12.8572 4.98209 12.8572C3.16736 12.8572 1.50664 12.3717 -5.22919e-05 11.4007C0.234323 11.4275 0.495483 11.4409 0.78343 11.4409C2.29013 11.4409 3.63276 10.9788 4.81133 10.0547C4.10821 10.0413 3.47874 9.82704 2.92294 9.41186C2.36714 8.98999 1.98544 8.45428 1.77785 7.80472C1.99883 7.8382 2.20307 7.85495 2.39057 7.85495C2.67852 7.85495 2.96312 7.81812 3.24437 7.74445C2.49437 7.59044 1.8716 7.21878 1.37606 6.6295C0.887224 6.03352 0.642805 5.34378 0.642805 4.5603V4.52012C1.09816 4.77459 1.587 4.91186 2.10932 4.93195C1.66736 4.63731 1.3158 4.25227 1.05464 3.77682C0.793475 3.30137 0.662894 2.78575 0.662894 2.22994C0.662894 1.64066 0.810216 1.0949 1.10486 0.592669C1.91513 1.59044 2.8995 2.39066 4.05798 2.99334C5.22316 3.58932 6.4687 3.92079 7.79459 3.98776C7.74102 3.73329 7.71423 3.48553 7.71423 3.24445C7.71423 2.34713 8.02897 1.58374 8.65843 0.954275C9.29459 0.318115 10.0613 3.45707e-05 10.9587 3.45707e-05C11.8962 3.45707e-05 12.6863 0.341552 13.3292 1.02459C14.0591 0.883963 14.7455 0.622802 15.3883 0.241106C15.1406 1.0112 14.6651 1.60718 13.962 2.02905C14.5848 1.96209 15.2075 1.79468 15.8303 1.52682Z" fill="white"/>
</svg>
