<svg width="25" height="24" viewBox="0 0 25 24" fill="none" xmlns="http://www.w3.org/2000/svg">
<path d="M9.29346 11.6998C10.0974 13.2935 11.4398 14.579 13.1021 15.3467C13.2247 15.4024 13.3603 15.4265 13.4956 15.4167C13.6308 15.4068 13.7611 15.3633 13.8735 15.2904L16.3149 13.7248C16.4228 13.6546 16.5474 13.6117 16.6772 13.6002C16.807 13.5887 16.9377 13.609 17.0571 13.6592L21.6274 15.5435C21.7836 15.6059 21.9141 15.7159 21.9988 15.8565C22.0835 15.9971 22.1177 16.1606 22.0962 16.3217C21.9513 17.407 21.3995 18.4046 20.5439 19.1276C19.6883 19.8506 18.5876 20.2495 17.4478 20.2498C13.9253 20.2498 10.5472 18.9065 8.05649 16.5154C5.56577 14.1243 4.1665 10.8813 4.1665 7.49979C4.16676 6.40553 4.58234 5.34886 5.33547 4.5275C6.08861 3.70613 7.1277 3.17635 8.2583 3.03729C8.42611 3.01659 8.59636 3.04943 8.74282 3.13074C8.88928 3.21206 9.00384 3.33733 9.06885 3.48729L11.0317 7.88416C11.0828 7.99699 11.1041 8.12013 11.0939 8.24275C11.0837 8.36537 11.0422 8.48369 10.9731 8.58729L9.34229 10.9685C9.26968 11.0762 9.22706 11.2 9.21852 11.328C9.20997 11.4561 9.23577 11.5841 9.29346 11.6998Z" stroke="black" stroke-width="1.5" stroke-linecap="round" stroke-linejoin="round"/>
<path d="M15.8286 3.75C17.1538 4.09141 18.362 4.76142 19.3322 5.69279C20.3024 6.62416 21.0003 7.78412 21.356 9.05625" stroke="black" stroke-width="1.5" stroke-linecap="round" stroke-linejoin="round"/>
<path d="M15.0146 6.64697C15.8116 6.85017 16.5385 7.25202 17.1216 7.81179C17.7047 8.37156 18.1233 9.06936 18.335 9.83447" stroke="black" stroke-width="1.5" stroke-linecap="round" stroke-linejoin="round"/>
</svg>
