<svg width="19" height="19" viewBox="0 0 19 19" fill="none" xmlns="http://www.w3.org/2000/svg">
<path d="M11.5791 14.2C11.2576 14.2 10.9154 14.1543 10.5554 14.0615C7.754 13.3391 4.20001 9.88281 4.20001 7.02738C4.20001 5.70807 4.83851 4.98321 5.07999 4.71039C5.38146 4.36476 5.82145 4.19995 6.10071 4.19995C7.12883 4.19995 7.35549 4.44317 7.65474 5.34004C7.7577 5.64887 7.8977 6.0721 8.17917 6.67695C8.32806 6.99777 8.33621 7.3138 8.20213 7.61622C7.98732 8.05546 7.77029 8.31228 7.62733 8.48269L7.62363 8.48749C7.80955 8.80832 8.16584 9.36276 8.64212 9.8204C9.27248 10.4268 9.81321 10.6789 10.1036 10.8149L10.1843 10.8525C10.2125 10.8141 10.2421 10.7709 10.2695 10.7317C10.391 10.5581 10.5487 10.334 10.7776 10.0612C11.1754 9.58678 11.5717 9.66359 11.8732 9.782C11.9657 9.8196 13.8694 10.6133 14.0812 11.0261C14.2501 11.3557 14.2635 12.0566 13.959 12.7078C13.5035 13.6831 12.6605 14.2 11.5791 14.2ZM6.10071 5.40005C6.03619 5.41897 5.9756 5.45102 5.92219 5.49445C5.68368 5.76568 5.3111 6.18731 5.3111 7.02738C5.3111 9.10594 8.24213 12.231 10.8139 12.8942C11.8857 13.1703 12.6124 12.9262 12.9687 12.1662C13.0553 11.9798 13.0828 11.8054 13.0879 11.6862C12.5811 11.4203 12.0676 11.1695 11.548 10.9341C11.368 11.1541 11.2502 11.3229 11.1561 11.4573C10.8939 11.8302 10.5332 12.3406 9.79987 11.983L9.66358 11.9166C9.01794 11.6272 8.42256 11.2214 7.90288 10.7165C7.2466 10.0852 6.79328 9.33556 6.58143 8.94593C6.25107 8.33388 6.6118 7.90585 6.80587 7.67543C6.91624 7.54422 7.03994 7.39701 7.16364 7.16739C6.86513 6.51534 6.7118 6.0545 6.60884 5.74647C6.5681 5.62407 6.52366 5.48885 6.49255 5.41765C6.36244 5.40233 6.23154 5.39645 6.10071 5.40005Z" fill="black"/>
<path d="M0.761904 18.2C0.687436 18.1999 0.613715 18.1851 0.544998 18.1564C0.476282 18.1277 0.413931 18.0857 0.361546 18.0327C0.220596 17.8895 0.166615 17.6826 0.220596 17.4884L1.35119 13.3802C0.64258 12.0749 0.271459 10.6132 0.271578 9.12797C0.272327 5.49888 2.36109 2.36016 5.7199 0.936268C9.12594 -0.506371 12.9016 0.202201 15.5759 2.78681C15.6216 2.83104 15.6584 2.88128 15.6861 2.93677C18.1865 5.51462 18.883 9.17296 17.499 12.5231C16.0895 15.9355 12.9218 18.0552 9.2324 18.0552C9.0922 18.0417 8.99848 18.038 8.88153 18.0312C8.19627 17.9938 6.79801 17.9165 5.14635 17.0752L0.904353 18.182C0.857799 18.1938 0.809949 18.1999 0.761904 18.2ZM5.21458 15.9138C5.30679 15.9138 5.39901 15.9363 5.48148 15.9813C6.99744 16.8008 8.26374 16.8705 8.943 16.908C9.0922 16.9163 9.21291 16.9238 9.30213 16.935C12.457 16.9305 15.2258 15.077 16.4583 12.0935C17.6864 9.12122 17.0416 5.87303 14.7767 3.61685C14.7393 3.57847 14.707 3.53537 14.6807 3.48863C12.3445 1.31042 9.0937 0.72782 6.15924 1.97176C3.22178 3.2172 1.39693 5.95851 1.39543 9.12722C1.39543 10.4956 1.7568 11.8438 2.44131 13.024C2.47873 13.0886 2.50285 13.16 2.51225 13.234C2.52165 13.3081 2.51614 13.3833 2.49604 13.4551L1.56262 16.8473L5.07288 15.9325C5.11906 15.92 5.16672 15.9137 5.21458 15.9138Z" fill="black" stroke="black" stroke-width="0.4"/>
</svg>
